<?xml version="1.0" encoding="UTF-8" standalone="no"?>
<svg
   xmlns:dc="http://purl.org/dc/elements/1.1/"
   xmlns:cc="http://creativecommons.org/ns#"
   xmlns:rdf="http://www.w3.org/1999/02/22-rdf-syntax-ns#"
   xmlns:svg="http://www.w3.org/2000/svg"
   xmlns="http://www.w3.org/2000/svg"
   height="222.88225"
   width="1920.4041"
   version="1.1"
   id="svg2"
   viewBox="0 0 1920.404 222.88224">
  <metadata
     id="metadata16">
    <rdf:RDF>
      <cc:Work
         rdf:about="">
        <dc:format>image/svg+xml</dc:format>
        <dc:type
           rdf:resource="http://purl.org/dc/dcmitype/StillImage" />
        <dc:title></dc:title>
      </cc:Work>
    </rdf:RDF>
  </metadata>
  <defs
     id="defs4">
    <style
       id="style6">
      .cls-1 {
        fill: url(#linear-gradient);
      }
    </style>
    <linearGradient
       gradientTransform="scale(2.935341,0.34067592)"
       gradientUnits="userSpaceOnUse"
       y2="10811.694"
       x2="194.86663"
       y1="10801.226"
       x1="845.17663"
       id="linear-gradient">
      <stop
         id="stop9"
         stop-color="#4776e6"
         offset="0" />
      <stop
         id="stop11"
         stop-color="#8e54e9"
         offset="1" />
    </linearGradient>
    <clipPath
       id="clipPath3396"
       clipPathUnits="userSpaceOnUse">
      <rect
         y="3568.2766"
         x="460.55875"
         height="546.88757"
         width="2135.957"
         id="rect3398"
         style="opacity:1;fill:#c2a752;fill-opacity:0;stroke:#ffffff;stroke-width:1.33232367;stroke-miterlimit:4;stroke-dasharray:1.33232367, 5.32929468;stroke-dashoffset:0;stroke-opacity:1" />
    </clipPath>
  </defs>
  <path
     style="fill:url(#linear-gradient)"
     clip-path="url(#clipPath3396)"
     transform="translate(-572,-3568.2766)"
     d="m 572,3123.681 0,567.364 c 0,0 59.457,36.354 121.52,58.007 62.063,21.653 185.541,43.016 253.089,42.077 67.548,-0.939 152.92,-9.384 275.82,-32.838 122.9,-23.454 170.746,-39.4 228.3,-54.562 57.554,-15.162 193.884,-60.283 263.193,-71.348 69.309,-11.065 107.616,-14.081 155.178,-14.081 47.562,0 73.029,3.438 168.159,18.9 95.13,15.462 146.717,34.4 209.393,47.509 62.676,13.109 86.49,16.719 142.78,22.492 a 884.241,884.241 0 0 0 102.972,4.461 l 0,-587.981 z"
     class="cls-1"
     data-name="Tracé 11"
     id="Tracé_11" />
</svg>
